<svg xmlns="http://www.w3.org/2000/svg" width="1024" height="1024" viewBox="0 0 1024 1024" fill="none"><rect width="1024" height="1024" fill="black"></rect><rect x="252" y="886.581" width="55.9999" height="424.429" transform="rotate(-180 252 886.581)" fill="#3E46E6"></rect><rect x="227.111" y="940" width="7.77785" height="532" transform="rotate(-180 227.111 940)" fill="#3E46E6"></rect><rect x="326" y="636.581" width="57.9999" height="424.429" transform="rotate(-180 326 636.581)" fill="#9722C8"></rect><rect x="300.223" y="690" width="8.05564" height="532" transform="rotate(-180 300.223 690)" fill="#9722C8"></rect><rect x="396" y="832.581" width="56.9999" height="424.429" transform="rotate(-180 396 832.581)" fill="#EB1C53"></rect><rect x="370.667" y="886" width="7.91675" height="532" transform="rotate(-180 370.667 886)" fill="#EB1C53"></rect><rect x="470" y="753.581" width="56.9999" height="424.429" transform="rotate(-180 470 753.581)" fill="#F65005"></rect><rect x="444.667" y="807" width="7.91675" height="532" transform="rotate(-180 444.667 807)" fill="#F65005"></rect><rect x="541" y="789.581" width="55.9999" height="424.429" transform="rotate(-180 541 789.581)" fill="#FCB501"></rect><rect x="516.111" y="843" width="7.77785" height="532" transform="rotate(-180 516.111 843)" fill="#FCB501"></rect><rect x="614" y="636.581" width="57.9999" height="424.429" transform="rotate(-180 614 636.581)" fill="#F8E001"></rect><rect x="588.223" y="690" width="8.05564" height="532" transform="rotate(-180 588.223 690)" fill="#F8E001"></rect><rect x="685" y="789.581" width="56.9999" height="424.429" transform="rotate(-180 685 789.581)" fill="#27AF1D"></rect><rect x="659.667" y="843" width="7.91675" height="532" transform="rotate(-180 659.667 843)" fill="#27AF1D"></rect><rect x="758" y="705.581" width="57.9999" height="424.429" transform="rotate(-180 758 705.581)" fill="#0867DB"></rect><rect x="732.223" y="759" width="8.05564" height="532" transform="rotate(-180 732.223 759)" fill="#0867DB"></rect><rect x="828" y="666.581" width="55.9999" height="424.429" transform="rotate(-180 828 666.581)" fill="#8F27C4"></rect><rect x="803.111" y="720" width="7.77785" height="532" transform="rotate(-180 803.111 720)" fill="#8F27C4"></rect></svg>